<svg width="95" height="95" viewBox="0 0 95 95" fill="none" xmlns="http://www.w3.org/2000/svg">
  <path d="M82.8218 0.110352H11.9664C5.41579 0.110352 0.105469 5.42067 0.105469 11.9713V82.8266C0.105469 89.3773 5.41579 94.6876 11.9664 94.6876H82.8218C89.3724 94.6876 94.6827 89.3773 94.6827 82.8266V11.9713C94.6827 5.42067 89.3724 0.110352 82.8218 0.110352Z" fill="#156B40"></path>
  <path d="M19.0367 27.7453L70.1803 15.1671C72.9998 14.4737 75.8517 16.1873 76.5484 18.9935L78.2124 25.6955L16.8561 40.7854L15.1922 34.0834C14.4955 31.2772 16.2173 28.4387 19.0367 27.7453Z" fill="black"></path>
  <path d="M16.8317 43.7575V69.5993C16.8317 74.7998 21.0684 79.0165 26.2935 79.0165H70.5804C75.8055 79.0165 80.0378 74.7998 80.0378 69.5993V43.7575H16.8317ZM67.036 75.2505C62.4249 75.2505 58.6846 71.5278 58.6846 66.9385C58.6846 62.3491 62.4249 58.6264 67.036 58.6264C71.6472 58.6264 75.3875 62.3491 75.3875 66.9385C75.3875 71.5278 71.6472 75.2505 67.036 75.2505Z" fill="black"></path>
</svg>
