<svg width="108" height="108" viewBox="0 0 108 108" fill="none" xmlns="http://www.w3.org/2000/svg">
  <g clip-path="url(#clip0_741_2286)">
    <path d="M54.188 107.69C83.7363 107.69 107.69 83.7363 107.69 54.188C107.69 24.6397 83.7363 0.686035 54.188 0.686035C24.6397 0.686035 0.686035 24.6397 0.686035 54.188C0.686035 83.7363 24.6397 107.69 54.188 107.69Z" fill="#ADA999"></path>
    <path d="M85.5033 37.2995C81.4122 32.3021 74.1444 31.6482 69.2712 35.8435L56.9176 46.4758L46.9666 37.9124C46.9666 37.8877 46.9666 37.863 46.9666 37.8342C46.9666 31.0106 41.5719 25.4785 34.9179 25.4785C28.2638 25.4785 22.8691 31.0106 22.8691 37.8342C22.8691 44.6579 28.2638 50.19 34.9179 50.19C37.2201 50.19 39.374 49.5278 41.2029 48.3761L47.9533 54.1838L41.2029 59.9915C39.374 58.8439 37.2201 58.1776 34.9179 58.1776C28.2638 58.1776 22.8691 63.7097 22.8691 70.5333C22.8691 77.3569 28.2638 82.889 34.9179 82.889C41.5719 82.889 46.9666 77.3569 46.9666 70.5333C46.9666 70.5086 46.9666 70.484 46.9666 70.4552L56.9176 61.8917L69.2712 72.524C74.1444 76.7194 81.4122 76.0654 85.5033 71.068L65.878 54.1797L85.5033 37.2913V37.2995ZM34.9179 43.1854C32.038 43.1854 29.6997 40.7916 29.6997 37.8342C29.6997 34.8769 32.034 32.4831 34.9179 32.4831C37.8017 32.4831 40.136 34.8769 40.136 37.8342C40.136 40.7916 37.8017 43.1854 34.9179 43.1854ZM34.9179 75.8844C32.038 75.8844 29.6997 73.4906 29.6997 70.5333C29.6997 67.576 32.034 65.1822 34.9179 65.1822C37.8017 65.1822 40.136 67.576 40.136 70.5333C40.136 73.4906 37.8017 75.8844 34.9179 75.8844Z" fill="black"></path>
  </g>
  <defs>
    <clipPath id="clip0_741_2286">
      <rect width="107" height="107" fill="white" transform="translate(0.686035 0.686035)"></rect>
    </clipPath>
  </defs>
</svg>
