<svg width="112" height="112" viewBox="0 0 112 112" fill="none" xmlns="http://www.w3.org/2000/svg">
  <path d="M84.5498 101.777L58.1091 110.217C51.0347 112.474 43.3184 111.4 37.1381 107.297L14.0306 91.9572C7.85021 87.8538 3.87975 81.1687 3.24704 73.7935L0.872099 46.2213C0.239393 38.8461 3.00863 31.5852 8.3958 26.4948L28.5461 7.45834C33.9379 2.36794 41.3607 -0.00362264 48.7148 1.01994L76.21 4.84917C83.564 5.87273 90.0516 10.1818 93.8341 16.5516L107.974 40.3632C111.756 46.733 112.421 54.4738 109.785 61.392L99.9181 87.2552C97.2773 94.1734 91.6242 99.5197 84.5498 101.777Z" fill="#FF8301"></path>
  <path d="M78.9938 54.5516C76.7981 51.4366 73.4875 49.3491 69.6693 48.669C69.0996 48.5684 68.5327 48.5044 67.9637 48.4692L74.7935 39.0682C77.609 35.1913 76.6772 29.8399 72.7142 27.1061L60.7095 43.626L65.2498 31.6526C66.9401 27.2014 64.6092 22.2732 60.0489 20.6427L50.4799 45.8604L52.4819 33.549C53.2444 28.8644 49.9679 24.4768 45.165 23.7557L39.9414 55.8813L26.113 71.6868L48.9623 90.665L61.8863 75.8957C62.6753 76.1803 63.4931 76.4014 64.335 76.5512C65.5891 76.7725 66.8353 76.8308 68.0494 76.7403C74.4788 76.2609 80.0565 71.6179 81.2904 65.1525C82.0028 61.4283 81.185 57.6628 78.9893 54.5478L78.9938 54.5516ZM67.5979 70.5723C63.0836 70.9089 59.1629 67.6159 58.8352 63.2211C58.5075 58.8263 61.9007 54.988 66.4109 54.6517C70.921 54.3154 74.8459 57.6081 75.1736 62.0029C75.5012 66.3977 72.1081 70.236 67.5979 70.5723Z" fill="black"></path>
</svg>
