<svg width="99" height="99" viewBox="0 0 99 99" fill="none" xmlns="http://www.w3.org/2000/svg">
  <g clip-path="url(#clip0_770_1512)">
    <path d="M74.5089 89.6394L51.2846 97.0526C45.0707 99.0353 38.2931 98.0921 32.8646 94.4878L12.568 81.0141C7.13946 77.4099 3.65199 71.5379 3.09625 65.06L1.01021 40.8417C0.454471 34.3637 2.88684 27.9861 7.61869 23.5149L25.3178 6.79416C30.0537 2.32298 36.5736 0.239909 43.033 1.13896L67.1836 4.50238C73.643 5.40143 79.3414 9.18628 82.6638 14.7813L95.0833 35.6963C98.4057 41.2913 98.9896 48.0903 96.674 54.167L88.0077 76.8841C85.6881 82.9607 80.7227 87.6567 74.5089 89.6394Z" fill="#FF3500"></path>
    
    <g clip-path="url(#clip1_770_1512)">
      <path d="M34.2748 56.8791L20.6584 70.544L28.1958 78.0119L41.8121 64.347C46.0767 66.9803 50.9987 68.1267 55.8362 67.7861L30.7413 42.9175C30.429 47.7447 31.6081 52.6452 34.2785 56.8791H34.2748Z" fill="black"></path>
      <path d="M70.7272 27.8205C61.5259 18.7045 46.6533 18.7484 37.5109 27.9231C34.4879 30.9557 32.475 34.6109 31.4612 38.4675L60.2954 67.0389C64.1596 66.0024 67.8107 63.9734 70.8337 60.9408C79.9762 51.7662 79.9321 36.9366 70.7309 27.8205H70.7272ZM64.1486 55.0881C60.3065 54.0736 58.0181 50.1473 59.0356 46.32C60.053 42.489 63.9906 40.2072 67.8291 41.2217C71.6712 42.2363 73.9596 46.1625 72.9421 49.9898C71.9246 53.8209 67.987 56.1026 64.1486 55.0881Z" fill="black"></path>
    </g>
  </g>

  <defs>
    <clipPath id="clip0_770_1512">
      <rect width="97.1377" height="97.1377" fill="white" transform="translate(0.93457 0.933594)"></rect>
    </clipPath>
    <clipPath id="clip1_770_1512">
      <rect width="57" height="57" fill="white" transform="translate(20.6584 21.0117)"></rect>
    </clipPath>
  </defs>
</svg>
